<svg width="20" height="22" viewBox="0 0 20 22" fill="none" xmlns="http://www.w3.org/2000/svg">
<path d="M4.15966 21.4021C3.55166 21.4021 3.03414 21.1886 2.60709 20.7616C2.18004 20.3345 1.96652 19.8175 1.96652 19.2104V2.40214H0.609375V1.045H6.03795V0H14.1808V1.045H19.6094V2.40214H18.2522V19.2104C18.2522 19.8346 18.0432 20.3562 17.6252 20.7751C17.2072 21.194 16.6852 21.403 16.0591 21.4021H4.15966ZM16.8951 2.40214H3.32366V19.2104C3.32366 19.4537 3.40192 19.6537 3.55845 19.8102C3.71497 19.9667 3.91538 20.045 4.15966 20.045H16.0604C16.2685 20.045 16.4599 19.9581 16.6345 19.7844C16.8091 19.6107 16.896 19.4189 16.8951 19.209V2.40214ZM7.13452 17.3307H8.49166V5.11643H7.13452V17.3307ZM11.7271 17.3307H13.0842V5.11643H11.7271V17.3307Z" fill="#FF0D0D"/>
</svg>
